PathFileType	4	(X/Y/Z)	D:\luciana\demolition.trc
DataRate	CameraRate	NumFrames	NumMarkers	Units	OrigDataRate	OrigDataStartFrame	OrigNumFrames
250.00	250.00	19	18	mm	250.00	300	1806
Frame#	Time	pelvisR			Trunk1			Trunk2			Trunk3			C7			shoulder			upperArm1			upperArm2			upperArm3			elbow			forearm1			forearm2			forearm3			wrist1			wrist2			wrist3			Object			Hand			
		X1	Y1	Z1	X2	Y2	Z2	X3	Y3	Z3	X4	Y4	Z4	X5	Y5	Z5	X6	Y6	Z6	X7	Y7	Z7	X8	Y8	Z8	X9	Y9	Z9	X10	Y10	Z10	X11	Y11	Z11	X12	Y12	Z12	X13	Y13	Z13	X14	Y14	Z14	X15	Y15	Z15	X16	Y16	Z16	X17	Y17	Z17	X18	Y18	Z18	

299	1.196000	1705.835462	656.418204	695.044398	1485.271335	872.360647	605.948627	1548.748970	821.069956	606.293201	1459.843159	780.751586	607.025862	1548.125148	1135.677218	784.143507	1723.182082	1061.673522	752.479494	1815.315008	912.598133	741.808176	1844.661355	907.513857	818.742692	1781.949997	888.550699	857.844353	1838.522911	776.287496	820.554376	1911.393404	720.444560	822.170377	1861.326575	687.674761	766.858578	1914.595127	793.963969	803.648829	2028.862238	711.053848	738.475561	1989.791512	686.154127	673.017263	2018.788338	784.560561	740.666151	2106.361628	757.917881	638.138890	2093.638182	710.147858	645.943642	
300	1.200000	1705.830216	656.410456	695.066273	1485.304117	872.374117	605.936170	1548.755765	821.072459	606.293976	1459.852099	780.749202	607.026279	1548.134565	1135.675788	784.135222	1723.181248	1061.663270	752.479732	1815.311670	912.598014	741.814852	1844.652772	907.505155	818.738937	1781.954527	888.553560	857.847452	1838.528991	776.289523	820.572972	1911.405087	720.437527	822.159886	1861.307383	687.661052	766.857505	1914.592743	793.956637	803.642094	2028.849363	711.045742	738.478124	1989.771247	686.115384	673.035324	2018.772602	784.538388	740.664005	2106.346607	757.897258	638.122499	2093.621492	710.130334	645.934939	
301	1.204000	1705.826521	656.415284	695.050180	1485.301733	872.374237	605.924547	1548.759580	821.080923	606.281579	1459.858060	780.764699	607.024908	1548.149228	1135.691047	784.130096	1723.178864	1061.652660	752.472043	1815.311551	912.597299	741.816998	1844.645381	907.496512	818.732679	1781.949997	888.554215	857.850850	1838.520885	776.289821	820.564270	1911.381125	720.409036	822.157383	1861.290932	687.657535	766.860247	1914.576292	793.952227	803.644180	2028.829575	711.026549	738.477468	1989.757061	686.096966	673.036218	2018.762112	784.524202	740.657687	2106.332779	757.878780	638.104200	2093.572140	710.084319	645.897865	
302	1.208000	1705.842137	656.421423	695.041835	1485.298753	872.376084	605.910122	1548.753977	821.092367	606.277347	1459.851027	780.761361	607.039511	1548.143983	1135.690331	784.129500	1723.189831	1061.642885	752.473414	1815.305114	912.582874	741.807938	1844.645381	907.487214	818.732262	1781.939983	888.553977	857.847333	1838.501692	776.289999	820.559144	1911.360025	720.394611	822.161853	1861.273050	687.650323	766.871929	1914.563775	793.938577	803.644359	2028.805971	711.001635	738.470793	1989.736438	686.092913	673.026621	2018.563271	784.566522	740.466833	2106.317282	757.855594	638.096571	2093.566418	710.060120	645.906329	
303	1.212000	1705.848098	656.429768	695.044518	1485.283852	872.382104	605.932236	1548.746228	821.084738	606.279194	1459.842920	780.751646	607.051015	1548.139811	1135.689497	784.126520	1723.192930	1061.644197	752.470553	1815.286636	912.562966	741.801858	1844.642758	907.482743	818.734229	1781.937003	888.549626	857.845545	1838.501215	776.286900	820.560694	1911.338210	720.389724	822.161138	1861.250639	687.639892	766.863763	1914.561152	793.932557	803.639889	2028.793335	710.986435	738.454521	1989.720583	686.093509	673.035026	2018.124104	784.685075	740.034342	2106.311560	757.834256	638.097823	2093.564987	710.034192	645.885110	
304	1.216000	1705.831885	656.425953	695.064664	1485.280156	872.369826	605.926156	1548.742533	821.070552	606.288791	1459.831715	780.740619	607.044637	1548.145056	1135.685086	784.121394	1723.190546	1061.637998	752.466440	1815.278411	912.565827	741.799712	1844.640732	907.470047	818.734229	1781.932116	888.538361	857.844412	1838.495851	776.266694	820.560277	1911.319494	720.376194	822.161853	1861.236095	687.633336	766.855955	1914.556265	793.930888	803.629637	2028.781176	710.973263	738.446712	1989.694595	686.078489	673.015893	2018.193007	784.648299	740.099907	2106.299877	757.815003	638.085842	2093.547344	710.008562	645.881474	
305	1.220000	1705.816984	656.416833	695.080876	1485.263705	872.365355	605.913460	1548.741817	821.060658	606.299162	1459.825039	780.731678	607.038915	1548.125505	1135.680318	784.121275	1723.187208	1061.642885	752.465010	1815.293550	912.570059	741.801977	1844.634533	907.466054	818.728864	1781.924009	888.531566	857.839048	1838.472962	776.258409	820.561349	1911.314368	720.360875	822.151780	1861.230373	687.619805	766.855121	1914.552927	793.924212	803.630590	2028.769732	710.963249	738.446236	1989.683151	686.045885	673.012376	2018.585920	784.513056	740.491271	2106.281757	757.796526	638.065934	2093.545914	710.023165	645.918369	
306	1.224000	1705.815077	656.411052	695.071757	1485.266685	872.367382	605.906844	1548.743606	821.057439	606.295049	1459.838390	780.731022	607.039094	1548.133969	1135.690331	784.119010	1723.187089	1061.637521	752.462268	1815.287590	912.549853	741.803467	1844.638467	907.462239	818.727076	1781.920671	888.525605	857.833266	1838.451505	776.249945	820.554733	1911.321282	720.361948	822.145343	1861.224413	687.607527	766.856015	1914.541483	793.909073	803.629279	2028.754234	710.948646	738.438725	1989.672422	686.042130	673.011899	2018.675327	784.462988	740.582943	2106.266022	757.776797	638.060808	2093.529701	710.010886	645.916641	
307	1.228000	1705.800772	656.417370	695.050657	1485.252857	872.353852	605.929494	1548.743725	821.059048	606.297314	1459.840298	780.729175	607.036829	1548.144817	1135.688305	784.113050	1723.191738	1061.653137	752.460182	1815.268397	912.535369	741.796613	1844.631791	907.449603	818.720698	1781.924725	888.523042	857.827246	1838.451028	776.257098	820.562601	1911.324263	720.364153	822.156847	1861.205697	687.601626	766.848922	1914.534211	793.902934	803.620517	2028.741598	710.932374	738.424838	1989.637852	686.021626	672.998786	2018.687010	784.436166	740.598381	2106.245041	757.762492	638.051689	2093.485594	709.977269	645.874023	
308	1.232000	1705.799818	656.426370	695.051372	1485.252619	872.345746	605.954826	1548.738956	821.069777	606.294274	1459.835768	780.726552	607.039213	1548.151016	1135.686398	784.102440	1723.179698	1061.647058	752.447248	1815.261364	912.526608	741.794944	1844.625473	907.435894	818.716049	1781.919479	888.515353	857.824445	1838.451862	776.252866	820.563018	1911.289692	720.348656	822.138846	1861.184835	687.595129	766.844451	1914.531469	793.893576	803.614378	2028.734207	710.922837	738.424778	1989.613891	686.011076	672.982931	2018.685341	784.417570	740.600884	2106.227875	757.748544	638.042569	2093.453646	709.964395	645.832419	
309	1.236000	1705.807328	656.407714	695.054531	1485.263228	872.352302	605.944633	1548.730612	821.069181	606.289983	1459.834933	780.724645	607.040763	1548.156142	1135.681152	784.087420	1723.176003	1061.628699	752.441883	1815.257311	912.522733	741.792917	1844.619274	907.426059	818.713546	1781.913280	888.510168	857.822537	1838.433981	776.230454	820.540488	1911.286712	720.334172	822.134614	1861.166716	687.586546	766.834795	1914.515018	793.881834	803.613067	2028.715134	710.914016	738.416612	1989.610553	686.002135	672.989845	2018.665552	784.403443	740.601063	2106.208801	757.734537	638.032973	2093.430042	709.952950	645.821691	
310	1.240000	1705.800653	656.403959	695.046425	1485.225916	872.336864	605.953276	1548.724532	821.071923	606.277645	1459.828377	780.734777	607.044339	1548.149228	1135.677814	784.090519	1723.183990	1061.630130	752.435505	1815.255880	912.526011	741.779447	1844.613075	907.414734	818.713188	1781.901240	888.496518	857.827306	1838.424563	776.218534	820.524633	1911.279321	720.323741	822.136283	1861.148000	687.581003	766.823530	1914.508700	793.878078	803.602219	2028.707027	710.905075	738.406181	1989.600182	685.986519	672.984481	2018.457890	784.454226	740.398228	2106.186628	757.719517	638.015091	2093.446016	709.962785	645.859540	
311	1.244000	1705.796242	656.424284	695.053697	1485.227227	872.321010	605.947196	1548.719049	821.060896	606.287181	1459.834337	780.728221	607.056081	1548.138022	1135.687470	784.086823	1723.192573	1061.627865	752.433538	1815.252781	912.515998	741.774917	1844.606280	907.404900	818.705857	1781.896830	888.487577	857.822120	1838.405371	776.210010	820.522308	1911.267996	720.315754	822.127223	1861.134887	687.578440	766.822696	1914.506197	793.864787	803.595781	2028.693199	710.891724	738.394678	1989.573598	685.976624	672.955751	2018.215656	784.514546	740.149438	2106.171370	757.710397	637.997925	2093.420029	709.949136	645.814955	
312	1.248000	1705.800533	656.420708	695.058465	1485.233665	872.316241	605.940938	1548.718214	821.049809	606.280565	1459.830880	780.707061	607.055187	1548.139095	1135.686517	784.076154	1723.181367	1061.618924	752.426147	1815.266490	912.514508	741.782308	1844.601631	907.395244	818.698108	1781.899810	888.481319	857.811511	1838.397503	776.197553	820.517838	1911.257744	720.302522	822.111130	1861.122251	687.567532	766.811430	1914.490819	793.846846	803.590596	2028.683662	710.871577	738.382757	1989.552498	685.959637	672.940969	2018.528461	784.402192	740.459979	2106.159210	757.695675	637.988746	2093.385220	709.918022	645.754099	
313	1.252000	1705.806136	656.416178	695.056736	1485.241294	872.306526	605.938673	1548.721671	821.041584	606.281281	1459.794760	780.689776	607.057691	1548.143506	1135.674477	784.060597	1723.187208	1061.621189	752.436697	1815.258622	912.494063	741.770506	1844.602227	907.387435	818.685830	1781.895399	888.466954	857.795298	1838.396430	776.196122	820.513308	1911.250234	720.297813	822.109103	1861.103654	687.547028	766.795933	1914.481759	793.834329	803.591251	2028.666735	710.858762	738.370776	1989.539027	685.960352	672.937393	2018.588066	784.359097	740.523636	2106.150866	757.676244	637.981415	2093.369722	709.871769	645.728469	
314	1.256000	1705.803156	656.414211	695.052862	1485.222101	872.296929	605.936289	1548.722625	821.033537	606.286287	1459.769964	780.685127	607.065320	1548.145533	1135.665059	784.048438	1723.192930	1061.615705	752.431989	1815.239906	912.476778	741.754770	1844.600201	907.373667	818.677008	1781.892300	888.463318	857.790470	1838.384151	776.186824	820.516288	1911.240339	720.289230	822.110891	1861.091495	687.542737	766.795814	1914.482474	793.833673	803.592205	2028.651237	710.845172	738.360465	1989.519715	685.964286	672.911644	2018.596411	784.337044	740.531564	2106.142282	757.659972	637.970924	2093.360186	709.855437	645.720422	
315	1.260000	1705.794811	656.402349	695.038199	1485.195875	872.289300	605.940342	1548.718333	821.033716	606.290996	1459.777951	780.692279	607.073128	1548.136950	1135.671139	784.047544	1723.192573	1061.611772	752.426744	1815.234423	912.466288	741.752446	1844.595909	907.364488	818.683505	1781.888843	888.457179	857.789755	1838.370681	776.160419	820.501208	1911.232352	720.275223	822.097003	1861.080647	687.535584	766.790390	1914.477110	793.821931	803.578615	2028.645515	710.827231	738.350332	1989.518642	685.959399	672.899485	2018.589497	784.321785	740.526140	2106.126785	757.645011	637.963772	2093.375444	709.865689	645.733416	
316	1.264000	1705.799341	656.410575	695.023358	1485.239267	872.294068	605.923533	1548.709154	821.024179	606.296778	1459.810734	780.694306	607.065558	1548.139215	1135.672450	784.047484	1723.187447	1061.606050	752.427101	1815.229177	912.462115	741.750836	1844.594717	907.349646	818.672776	1781.885386	888.449550	857.792795	1838.369012	776.158810	820.483387	1911.215901	720.257998	822.090030	1861.071110	687.527716	766.777396	1914.459109	793.808639	803.566396	2028.636456	710.816383	738.336444	1989.507794	685.941994	672.884703	2018.394709	784.368753	740.330637	2106.115818	757.628262	637.952507	2093.357086	709.874272	645.725429	
317	1.268000	1705.797315	656.414986	695.034564	1485.234618	872.294903	605.921626	1548.702598	821.019709	606.305957	1459.811568	780.676603	607.088149	1548.155904	1135.681152	784.048140	1723.175168	1061.598897	752.414942	1815.219879	912.438989	741.753161	1844.589472	907.348156	818.661988	1781.883001	888.436496	857.784510	1838.359594	776.153326	820.468187	1911.208391	720.227718	822.074711	1861.054301	687.513769	766.762495	1914.446831	793.794274	803.566098	2028.630257	710.810065	738.323748	1989.497781	685.932815	672.890723	2018.148422	784.427047	740.090907	2106.097221	757.611573	637.938499	2093.315840	709.870875	645.691276	
